# AST/ASF file generated using VICON BodyLanguage
# -----------------------------------------------
:version 1.10
:name VICON
:units
  mass 1.0
  length 0.45
  angle deg
:documentation
   .ast/.asf automatically generated from VICON data using
   VICON BodyBuilder and BodyLanguage model FoxedUp or BRILLIANT.MOD
:root
   order TX TY TZ RX RY RZ
   axis XYZ
   position 0 0 0  
   orientation 0 -0 0 
:bonedata
  begin
     id 1 
     name lhipjoint
     direction 0.515797 -0.759363 0.396637 
     length 2.47888 
     axis 0 -0 0  XYZ
  end
  begin
     id 2 
     name lfemur
     direction 0.34202 -0.939693 0  
     length 6.81885  
     axis 0 -0 20  XYZ
    dof rx ry rz
    limits (-160.0 20.0)
           (-70.0 70.0)
           (-60.0 70.0)
  end
  begin
     id 3 
     name ltibia
     direction 0.342037 -0.939687 0   
     length 7.89258   
     axis 0 -0 20   XYZ
    dof rx
    limits (-10.0 170.0)
  end
  begin
     id 4 
     name lfoot
     direction 0.173497 -0.476678 0.861787   
     length 2.51543   
     axis -90 -1.13533e-015 20   XYZ
    dof rx rz
    limits (-45.0 90.0)
           (-70.0 20.0)
  end
  begin
     id 5 
     name ltoes
     direction 1.53564e-011 -4.21897e-011 1   
     length 1.21388   
     axis -90 -1.13533e-015 20   XYZ
    dof rx
    limits (-90.0 20.0)
  end
  begin
     id 6 
     name rhipjoint
     direction -0.489454 -0.772941 0.403729   
     length 2.43534  
     axis 0 -0 0  XYZ 
  end
  begin
     id 7 
     name rfemur
     direction -0.34202 -0.939693 0   
     length 7.10357   
     axis 0 -0 -20   XYZ
    dof rx ry rz
    limits (-160.0 20.0)
           (-70.0 70.0)
           (-70.0 60.0)
  end
  begin
     id 8 
     name rtibia
     direction -0.34202 -0.939693 0   
     length 9.16127   
     axis 0 -0 -20   XYZ
    dof rx
    limits (-10.0 170.0)
 end
 begin
     id 9 
     name rfoot
     direction -0.270974 -0.748671 0.605033   
     length 1.74894  
     axis -90 1.13533e-015 -20   XYZ
    dof rx rz
    limits (-45.0 90.0)
           (-20.0 70.0)
  end
  begin
     id 10 
     name rtoes
     direction -1.53557e-011 -4.21759e-011 1   
     length 0.787585   
     axis -90 1.13533e-015 -20   XYZ
    dof rx
    limits (-90.0 20.0)
  end
  begin
     id 11 
     name lowerback
     direction -0.0140249 0.999561 0.0260968   
     length 2.16963   
     axis 0 -0 0   XYZ
    dof rx ry rz
    limits (-20.0 45.0)
           (-30.0 30.0)
           (-30.0 30.0)
  end
  begin
     id 12 
     name upperback
     direction 0.00860018 0.999959 -0.002711   
     length 2.1726   
     axis 0 -0 0   XYZ
    dof rx ry rz
    limits (-20.0 45.0)
           (-30.0 30.0)
           (-30.0 30.0)
  end
  begin
     id 13 
     name thorax
     direction 0.015211 0.999782 -0.0143191   
     length 2.17061   
     axis 0 -0 0   XYZ
    dof rx ry rz
    limits (-20.0 45.0)
           (-30.0 30.0)
           (-30.0 30.0)
  end
  begin
     id 14 
     name lowerneck
     direction -0.0140143 0.999447 0.030145   
     length 2.26749   
     axis 0 -0 0   XYZ
    dof rx ry rz
    limits (-20.0 45.0)
           (-30.0 30.0)
           (-30.0 30.0)
  end
  begin
     id 15 
     name upperneck
     direction 0.118062 0.961438 -0.248392   
     length 2.22728   
     axis 0 -0 0   XYZ
    dof rx ry rz
    limits (-20.0 45.0)
           (-30.0 30.0)
           (-30.0 30.0)
  end
  begin
     id 16
     name head
     direction 0.0431885 0.9954 -0.085514  
     length 2.28786  
     axis 0 -0 0   XYZ
    dof rx ry rz
    limits (-20.0 45.0)
           (-30.0 30.0)
           (-30.0 30.0)
  end
  begin
     id 17 
     name lclavicle
     direction 0.912126 0.409548 0.0172323  
     length 4.31571  
     axis 0 -0 0   XYZ
    dof ry rz
    limits (-20.0 10.0)
           (0.0 20.0)
  end
  begin
     id 18 
     name lhumerus
     direction 1 -4.48977e-011 1.93091e-027   
     length 5.13658   
     axis 180 -30 -90   XYZ
    dof rx ry rz
    limits (-60.0 90.0)
           (-90.0 90.0)
           (-90.0 90.0)
  end
  begin
     id 19
     name lradius
     direction 1 -4.48916e-011 6.84018e-027   
     length 3.22473   
     axis 180 -30 -90   XYZ
    dof rx
    limits (-10.0 170.0)
  end
  begin
     id 20
     name lwrist
     direction 1 -4.48987e-011 7.01981e-027   
     length 1.61236   
     axis -4.37994e-015 90 90   XYZ
    dof ry
    limits (-180.0 0.0)
 end
  begin
     id 21 
     name lhand
     direction 1 -4.49037e-011 1.40335e-026   
     length 0.936406   
     axis -8.96029e-015 90 90   XYZ
    dof rx rz
    limits (-90.0 90.0)
           (-45.0 45.0)
  end
  begin
     id 22 
     name lfingers
     direction 1 -4.48886e-011 2.8104e-026   
     length 0.754955   
     axis -1.79203e-014 90 90   XYZ
    dof rx
    limits (0.0 90.0)
  end
  begin
     id 23
     name lthumb
     direction 0.707107 -6.34937e-011 0.707107   
     length 1.08397   
     axis -90 45 -4.48555e-014   XYZ
    dof rx rz
    limits (-45.0 45.0)
           (-45.0 45.0)
  end
  begin
     id 24 
     name rclavicle
     direction -0.947962 0.317997 0.0156638   
     length 4.86918  
     axis 0 -0 0   XYZ 
    dof ry rz
    limits (-10.0 20.0)
           (-20.0 0.0)
  end
  begin
     id 25 
     name rhumerus
     direction -1 -4.48951e-011 2.80534e-018  
     length 5.60911   
     axis 180 30 90   XYZ
    dof rx ry rz
    limits (-90.0 60.0)
           (-90.0 90.0)
           (-90.0 90.0)
  end
  begin
     id 26 
     name rradius
     direction -1 -4.4898e-011 2.11315e-027   
     length 3.38704   
     axis 180 30 90   XYZ
    dof rx
    limits (-10.0 170.0)
  end
  begin
     id 27 
     name rwrist
     direction -1 -4.48933e-011 7.02314e-027   
     length 1.69352   
     axis -4.37994e-015 -90 -90   XYZ
    dof ry
    limits (-180.0 0.0)
  end
  begin
     id 28
     name rhand
     direction -1 -4.48937e-011 1.40458e-026   
     length 0.755878   
     axis -8.96029e-015 -90 -90   XYZ
    dof rx rz
    limits (-90.0 90.0)
           (-45.0 45.0)
  end
  begin
     id 29
     name rfingers
     direction -1 -4.4901e-011 2.80737e-026   
     length 0.609409   
     axis -1.79203e-014 -90 -90   XYZ
    dof rx
    limits (0.0 90.0)
  end
  begin
     id 30
     name rthumb
     direction -0.707107 -6.34968e-011 0.707107   
     length 0.874992   
     axis -90 -45 4.48555e-014   XYZ
    dof rx rz
    limits (-45.0 45.0)
           (-45.0 45.0)
  end
:hierarchy
  begin
    root lhipjoint rhipjoint lowerback
    lhipjoint lfemur
    lfemur ltibia
    ltibia lfoot
    lfoot ltoes
    rhipjoint rfemur
    rfemur rtibia
    rtibia rfoot
    rfoot rtoes
    lowerback upperback
    upperback thorax
    thorax lowerneck lclavicle rclavicle
    lowerneck upperneck
    upperneck head
    lclavicle lhumerus
    lhumerus lradius
    lradius lwrist
    lwrist lhand lthumb
    lhand lfingers
    rclavicle rhumerus
    rhumerus rradius
    rradius rwrist
    rwrist rhand rthumb
    rhand rfingers
  end

#!OML:ASF C:\ViconDB\ViconDB\414\Spring2016\041811\Spring2016.ASF
:FULLY-SPECIFIED
:DEGREES
91
root 11.0277 17.9638 8.62716 -177.512 -11.8648 -177.245
lowerback 0.358365 -0.184376 -1.72862
upperback 1.31629 -0.281274 1.48224
thorax 1.16341 -0.179395 2.48739
lowerneck -13.5292 0.141564 -6.0614
upperneck 21.7005 -2.53485 13.1276
head 9.26409 -0.696405 5.23389
rclavicle -2.35001e-014 2.59414e-014
rhumerus -81.2809 28.7125 -109.666
rradius 89.5342
rwrist 37.0563
rhand -47.4822 2.29353
rfingers 7.12502
rthumb -20.1708 -26.6793
lclavicle -2.35001e-014 2.59414e-014
lhumerus -88.7694 -42.6623 125.619
lradius 72.9559
lwrist -26.6619
lhand -48.7802 1.92629
lfingers 7.12502
lthumb -21.4179 30.7624
rfemur 186.357 33.7966 -158.38
rtibia 32.1497
rfoot -16.5639 -56.4565
rtoes -27.0546
lfemur 2.52914 -7.80766 -18.7473
ltibia 19.5658
lfoot -23.9723 -4.30647
ltoes -13.5118
92
root 11.0035 17.9555 8.54692 -177.39 -11.9212 -177.196
lowerback 0.255371 -0.221652 -1.5562
upperback 1.16047 -0.326974 1.49242
thorax 1.06293 -0.196579 2.40038
lowerneck -13.3998 0.121251 -6.08339
upperneck 21.7322 -2.58369 13.1442
head 9.25585 -0.728337 5.23696
rclavicle -1.89032e-014 -9.0447e-015
rhumerus -81.3866 28.553 -109.682
rradius 89.661
rwrist 36.9354
rhand -47.1796 2.40237
rfingers 7.12502
rthumb -19.8799 -26.6009
lclavicle -1.89032e-014 -9.0447e-015
lhumerus -88.932 -42.5141 125.785
lradius 72.7482
lwrist -26.5447
lhand -48.7344 1.92887
lfingers 7.12502
lthumb -21.3739 30.77
rfemur 189.494 35.8015 -156.118
rtibia 30.7408
rfoot -21.3112 -56.1463
rtoes -26.8379
lfemur 2.85331 -7.78142 -18.7548
ltibia 19.2683
lfoot -24.0145 -4.26736
ltoes -13.9118
93
root 10.9818 17.9494 8.46376 -177.229 -11.89 -177.161
lowerback -0.0709387 -0.224566 -1.54356
upperback 1.13529 -0.328493 1.57593
thorax 1.22076 -0.199126 2.47786
lowerneck -13.4295 0.084608 -6.14819
upperneck 21.7149 -2.6103 13.1395
head 9.25896 -0.743673 5.24371
rclavicle 3.91792e-014 -5.36719e-015
rhumerus -81.2606 28.5269 -109.516
rradius 89.7472
rwrist 36.7729
rhand -47.0887 2.52836
rfingers 7.12502
rthumb -19.7926 -26.4839
lclavicle 3.91792e-014 -5.36719e-015
lhumerus -88.9157 -42.5132 125.874
lradius 72.7973
lwrist -26.5132
lhand -48.5676 2.13239
lfingers 7.12502
lthumb -21.2137 30.9916
rfemur 192.761 37.6227 -153.679
rtibia 29.4355
rfoot -26.7661 -55.9154
rtoes -27.3536
lfemur 3.18177 -7.70497 -18.7572
ltibia 18.9054
lfoot -24.0225 -4.23578
ltoes -13.9971
94
root 10.9718 17.9396 8.38384 -177.088 -12.1202 -177.328
lowerback -0.153048 -0.310043 -1.75977
upperback 1.03787 -0.436649 1.57886
thorax 1.1747 -0.252586 2.6011
lowerneck -13.4037 0.0582568 -6.19183
upperneck 21.7613 -2.65984 13.1729
head 9.27631 -0.770418 5.25885
rclavicle -8.23093e-016 1.36167e-014
rhumerus -81.1596 28.4004 -109.415
rradius 89.7534
rwrist 36.9023
rhand -46.9107 2.50776
rfingers 7.12502
rthumb -19.6214 -26.522
lclavicle -8.23093e-016 1.36167e-014
lhumerus -88.9708 -42.4917 125.886
lradius 72.7241
lwrist -26.177
lhand -48.5568 1.09782
lfingers 7.12502
lthumb -21.2033 29.9582
rfemur 195.771 39.042 -151.695
rtibia 28.2796
rfoot -31.156 -55.4532
rtoes -27.4759
lfemur 3.53721 -7.73668 -18.8595
ltibia 18.476
lfoot -23.9169 -4.51537
ltoes -13.8879
95
root 10.9488 17.9285 8.29825 -177.056 -12.1521 -177.451
lowerback -0.134063 -0.326224 -1.79168
upperback 0.887408 -0.455201 1.57944
thorax 1.01113 -0.257521 2.61998
lowerneck -13.2134 0.0167069 -6.18282
upperneck 21.8437 -2.72626 13.066
head 9.27396 -0.822511 5.21114
rclavicle 1.34801e-015 -1.72446e-014
rhumerus -81.3629 28.29 -109.407
rradius 89.8532
rwrist 36.8093
rhand -46.8655 2.77385
rfingers 7.12502
rthumb -19.578 -26.2604
lclavicle 1.34801e-015 -1.72446e-014
lhumerus -89.2335 -42.2913 126.157
lradius 72.6751
lwrist -26.2965
lhand -48.563 1.89891
lfingers 7.12502
lthumb -21.2093 30.7586
rfemur 198.726 40.6437 -149.433
rtibia 27.2525
rfoot -36.8118 -55.1576
rtoes -28.0302
lfemur 4.11808 -7.79704 -19.0765
ltibia 18.027
lfoot -23.9271 -4.42547
ltoes -14.2067
96
root 10.9219 17.9142 8.20864 -176.89 -12.0474 -177.599
lowerback -0.193822 -0.317598 -1.73595
upperback 0.686808 -0.439176 1.54604
thorax 0.837341 -0.24338 2.55466
lowerneck -13.2201 -0.00217325 -6.22865
upperneck 22.0495 -2.76775 13.0107
head 9.35041 -0.8547 5.20174
rclavicle 1.34366e-014 -1.46604e-015
rhumerus -81.4907 28.1402 -109.386
rradius 89.784
rwrist 37.2011
rhand -46.8939 2.37794
rfingers 7.12502
rthumb -19.6053 -26.6535
lclavicle 1.34366e-014 -1.46604e-015
lhumerus -89.4214 -42.0659 126.305
lradius 72.5685
lwrist -26.2711
lhand -48.7016 1.88046
lfingers 7.12502
lthumb -21.3425 30.7252
rfemur 202.079 42.4821 -146.528
rtibia 26.3907
rfoot -42.7915 -54.9377
rtoes -27.1789
lfemur 4.59756 -7.85655 -19.3605
ltibia 17.5744
lfoot -23.9933 -4.18998
ltoes -14.3111
97
root 10.9032 17.9018 8.12429 -176.835 -12.1794 -177.608
lowerback -0.466425 -0.376903 -1.73534
upperback 0.744542 -0.515678 1.55492
thorax 1.05392 -0.284927 2.56062
lowerneck -13.1337 -0.0219198 -6.16946
upperneck 21.878 -2.80607 13.0733
head 9.27959 -0.86513 5.20186
rclavicle 7.83879e-015 4.34841e-017
rhumerus -81.2715 28.1343 -109.344
rradius 89.831
rwrist 37.2322
rhand -46.9202 2.31041
rfingers 7.12502
rthumb -19.6306 -26.7185
lclavicle 7.83879e-015 4.34841e-017
lhumerus -89.123 -42.0992 126.006
lradius 72.4466
lwrist -26.4363
lhand -48.6607 1.85177
lfingers 7.12502
lthumb -21.3031 30.7009
rfemur 205.113 43.9466 -143.769
rtibia 25.6573
rfoot -47.7317 -54.3228
rtoes -28.0395
lfemur 5.06387 -7.90239 -19.3943
ltibia 17.1697
lfoot -23.9376 -4.18433
ltoes -14.7507
98
root 10.8824 17.8839 8.03035 -176.759 -12.1093 -177.671
lowerback -0.655175 -0.317191 -1.59509
upperback 0.678164 -0.433603 1.51615
thorax 1.08558 -0.241745 2.44214
lowerneck -13.0092 -0.102957 -6.17236
upperneck 21.8601 -2.91451 13.0202
head 9.26116 -0.927405 5.16849
rclavicle -4.21913e-015 -1.9689e-014
rhumerus -81.2151 27.8764 -109.304
rradius 89.8663
rwrist 37.1309
rhand -46.7301 2.49768
rfingers 7.12502
rthumb -19.4478 -26.5497
lclavicle -4.21913e-015 -1.9689e-014
lhumerus -89.3069 -42.1324 126.174
lradius 72.4199
lwrist -26.1588
lhand -48.5294 1.71899
lfingers 7.12502
lthumb -21.177 30.5823
rfemur 208.755 46.1471 -139.89
rtibia 25.0678
rfoot -53.827 -54.0753
rtoes -26.8308
lfemur 5.53283 -7.84897 -19.5248
ltibia 16.874
lfoot -24.0298 -4.1129
ltoes -14.8954
99
root 10.8637 17.8643 7.93974 -176.688 -12.1945 -177.838
lowerback -0.521147 -0.375838 -1.55978
upperback 0.473762 -0.509764 1.45604
thorax 0.804173 -0.273296 2.36081
lowerneck -12.9238 -0.138747 -6.30012
upperneck 22.0189 -3.00892 13.1213
head 9.31246 -0.983271 5.2204
rclavicle -4.58758e-015 -2.29224e-014
rhumerus -81.4036 27.8102 -109.42
rradius 89.8918
rwrist 37.0043
rhand -46.5122 2.8497
rfingers 7.12502
rthumb -19.2383 -26.2187
lclavicle -4.58758e-015 -2.29224e-014
lhumerus -89.4573 -41.8704 126.106
lradius 72.3906
lwrist -26.2235
lhand -48.3882 1.51554
lfingers 7.12502
lthumb -21.0414 30.394
rfemur 212.585 48.3152 -135.819
rtibia 24.5949
rfoot -59.6771 -53.5683
rtoes -26.0548
lfemur 5.95032 -7.89354 -19.7508
ltibia 16.6593
lfoot -24.0994 -4.08968
ltoes -15.0099
100
root 10.8414 17.8409 7.84334 -176.52 -12.176 -178.055
lowerback -0.720112 -0.366082 -1.59288
upperback 0.374313 -0.491766 1.40044
thorax 0.8127 -0.262659 2.32158
lowerneck -12.8554 -0.231406 -6.45742
upperneck 22.0471 -3.15608 13.2508
head 9.32936 -1.05949 5.27776
rclavicle 1.03166e-014 2.93207e-015
rhumerus -81.4491 27.6816 -109.454
rradius 90.0097
rwrist 36.7019
rhand -46.4216 2.79281
rfingers 7.12502
rthumb -19.1512 -26.2843
lclavicle 1.03166e-014 2.93207e-015
lhumerus -89.4664 -41.7987 126.08
lradius 72.3503
lwrist -26.0588
lhand -48.284 1.25143
lfingers 7.12502
lthumb -20.9413 30.141
rfemur 216.771 50.2755 -131.305
rtibia 24.2801
rfoot -65.6213 -52.9985
rtoes -24.8776
lfemur 6.33389 -7.99969 -20.0915
ltibia 16.4197
lfoot -24.2367 -3.88267
ltoes -15.1514
101
root 10.8235 17.8209 7.74618 -176.404 -12.1988 -178.124
lowerback -0.904503 -0.380105 -1.55576
upperback 0.290951 -0.509139 1.424
thorax 0.83148 -0.270741 2.32372
lowerneck -12.806 -0.323139 -6.48178
upperneck 22.1417 -3.26447 13.1074
head 9.36315 -1.12909 5.22054
rclavicle 1.66047e-014 4.42296e-015
rhumerus -81.479 27.633 -109.494
rradius 90.0871
rwrist 36.4818
rhand -46.1895 2.92254
rfingers 7.12502
rthumb -18.928 -26.1765
lclavicle 1.66047e-014 4.42296e-015
lhumerus -89.4333 -41.6831 126.067
lradius 72.2611
lwrist -26.112
lhand -48.1666 1.30999
lfingers 7.12502
lthumb -20.8285 30.212
rfemur 220.748 51.7916 -126.802
rtibia 24.0791
rfoot -71.1455 -52.5033
rtoes -24.4436
lfemur 6.72823 -7.99766 -20.2048
ltibia 16.1552
lfoot -24.3299 -3.83913
ltoes -15.2555
